:SAMPLES-PER-SECOND 30
:FULLY-SPECIFIED
:DEGREES
148
root  -12.6933 38.2141 17.8339 163.259 71.5655 167.458
RightUpLeg  -25.4661 -21.4509 -2.97876
RightLeg  16.1771 -6.11303 -0.192609
RightFoot  4.83662 0.56794 -3.79935
RightToes  0.000482159 0.542163 -0.142577
Spine  17.4157 4.00944 17.4589
Spine1  12.0255 11.2749 -14.1748
HEad  4.05387 -12.4105 -1.40437
LeftShoulder1  9.52616 -14.1883 -46.9859
LeftArm  -20.3598 29.8381 -19.7626
LeftForeArm  3.4941 -66.4116 -27.0891
LeftHand  -0.25398 0.0180481 5.50724
RightShoulder  6.34208 12.3979 33.9262
RightArm  53.9387 35.3765 69.5692
RightForeArm  -36.4807 22.4191 7.23319
RightHand  0.0369901 -8.53573 -3.45438
LeftUpLeg  18.7194 2.31618 6.01855
LeftLeg  23.9247 -3.64421 -1.37995
LeftFoot  -14.3864 -0.286989 -15.0021
LeftToes  1.06248e-005 4.65855e-005 -8.18498e-006
149
root  -10.7253 38.0377 18.0637 167.942 71.9317 172.851
RightUpLeg  -26.8599 -22.5688 0.719501
RightLeg  23.2355 -3.52059 -2.16524
RightFoot  5.42 0.970448 -6.37914
RightToes  0.000482159 0.542163 -0.142577
Spine  18.1903 3.56824 19.9129
Spine1  11.9543 11.4765 -13.9823
HEad  4.53053 -12.05 -1.6892
LeftShoulder1  9.39876 -13.9336 -47.0356
LeftArm  -21.294 29.747 -20.0739
LeftForeArm  2.10845 -65.5549 -25.9972
LeftHand  -0.25398 0.0180481 5.50724
RightShoulder  6.41851 12.5112 34.1194
RightArm  52.5595 34.3815 69.4768
RightForeArm  -35.7765 22.2419 7.28096
RightHand  0.0464315 -8.86396 -3.50998
LeftUpLeg  14.9372 -0.355233 7.86372
LeftLeg  34.6574 0.356174 0.7156
LeftFoot  -4.03199 0.936905 -15.4668
LeftToes  1.06248e-005 4.65855e-005 -8.18498e-006
150
root  -8.9749 37.8577 18.3162 173.994 70.6717 179.464
RightUpLeg  -26.5269 -21.0117 2.31035
RightLeg  29.1235 -6.0457 -3.87815
RightFoot  1.82354 0.934829 -7.97173
RightToes  0.000482159 0.542163 -0.142577
Spine  18.8347 2.73522 22.019
Spine1  12.0919 11.0081 -12.5595
HEad  4.46316 -12.039 -1.65902
LeftShoulder1  9.42703 -14.0341 -46.9042
LeftArm  -21.8607 29.2789 -20.7569
LeftForeArm  1.05676 -64.6717 -24.9201
LeftHand  -0.25398 0.0180481 5.50724
RightShoulder  6.31289 12.4873 33.5218
RightArm  51.6113 33.9063 69.3869
RightForeArm  -36.119 22.6545 7.08121
RightHand  0.0574655 -9.27946 -3.54572
LeftUpLeg  7.69824 -4.52815 8.99783
LeftLeg  47.6172 2.99747 3.84711
LeftFoot  9.51185 1.688 -9.534
LeftToes  1.06248e-005 4.65855e-005 -8.18498e-006
151
root  -7.33705 37.7147 18.5593 178.393 68.6403 -175.491
RightUpLeg  -25.1934 -21.5227 4.04837
RightLeg  33.2299 -7.42751 -5.45975
RightFoot  -2.78121 0.612105 -8.36402
RightToes  0.000482159 0.542163 -0.142577
Spine  19.2708 1.9295 23.4548
Spine1  12.5308 10.333 -10.5457
HEad  4.33922 -12.4344 -1.14768
LeftShoulder1  9.50118 -14.2423 -46.7139
LeftArm  -21.1276 28.1118 -21.1836
LeftForeArm  0.695139 -63.9304 -24.0243
LeftHand  -0.25398 0.0180481 5.50724
RightShoulder  6.13912 12.2832 32.9366
RightArm  50.638 34.1332 68.978
RightForeArm  -36.3833 22.9863 6.9425
RightHand  0.0602109 -9.65011 -3.3821
LeftUpLeg  -0.0119405 -8.87363 9.61028
LeftLeg  58.7213 2.30286 4.55668
LeftFoot  16.6446 0.96314 -4.12464
LeftToes  1.06248e-005 4.65855e-005 -8.18498e-006
152
root  -5.55496 37.9145 18.8069 179.038 67.7374 -174.318
RightUpLeg  -22.1297 -22.4737 4.69228
RightLeg  34.3391 -7.60338 -5.82283
RightFoot  -6.20878 0.309476 -7.80223
RightToes  0.000482159 0.542163 -0.142577
Spine  19.6734 1.89581 23.2348
Spine1  12.7935 10.1117 -9.35297
HEad  4.67278 -12.8475 -0.344259
LeftShoulder1  9.52681 -14.3276 -46.6134
LeftArm  -19.4825 26.6169 -21.1677
LeftForeArm  0.849242 -63.4563 -23.4404
LeftHand  -0.25398 0.0180481 5.50724
RightShoulder  6.07159 12.0821 33.0058
RightArm  48.8922 34.673 68.2132
RightForeArm  -35.8279 22.5639 7.08662
RightHand  0.0577798 -9.64748 -3.3215
LeftUpLeg  -6.25728 -11.2014 9.11988
LeftLeg  65.485 1.17113 3.51741
LeftFoot  15.3651 0.489715 -2.47899
LeftToes  1.06248e-005 4.65855e-005 -8.18498e-006
153
root  -3.69513 38.3061 19.0266 178.165 68.239 -175.127
RightUpLeg  -18.4169 -23.2051 4.59325
RightLeg  33.6016 -6.83939 -5.13931
RightFoot  -8.7794 0.0991763 -7.09712
RightToes  0.000482159 0.542163 -0.142577
Spine  19.9542 2.45674 22.1896
Spine1  12.7012 10.4306 -9.20649
HEad  5.51759 -12.8738 0.215213
LeftShoulder1  9.53386 -14.329 -46.6449
LeftArm  -18.2832 25.4382 -21.0798
LeftForeArm  1.01857 -63.1869 -23.1109
LeftHand  -0.25398 0.0180481 5.50724
RightShoulder  6.13143 12.0665 33.4271
RightArm  46.0504 35.0418 67.5098
RightForeArm  -34.419 21.4872 7.55458
RightHand  0.0617524 -9.33114 -3.63133
LeftUpLeg  -11.4449 -11.3574 7.9917
LeftLeg  67.8048 0.769241 2.85275
LeftFoot  10.6132 0.621874 -3.55848
LeftToes  1.06248e-005 4.65855e-005 -8.18498e-006
154
root  -1.85112 38.6377 19.1886 177.787 69.26 -175.801
RightUpLeg  -14.6816 -24.0589 4.48495
RightLeg  32.1578 -5.50492 -3.99475
RightFoot  -11.1678 -0.0658316 -6.93477
RightToes  0.000482159 0.542163 -0.142577
Spine  19.8462 3.15851 21.4176
Spine1  12.4769 10.9406 -9.46857
HEad  6.46103 -12.5095 0.112647
LeftShoulder1  9.56714 -14.3453 -46.7681
LeftArm  -18.1461 24.6403 -21.2554
LeftForeArm  0.871033 -62.8936 -22.7964
LeftHand  -0.25398 0.0180481 5.50724
RightShoulder  6.20239 12.1686 33.6221
RightArm  43.0395 35.1803 67.1646
RightForeArm  -32.7363 20.485 8.06013
RightHand  0.0707283 -9.15506 -4.01899
LeftUpLeg  -16.0678 -10.4981 6.74679
LeftLeg  66.6554 0.847872 2.87213
LeftFoot  6.84149 0.580041 -3.8415
LeftToes  1.06248e-005 4.65855e-005 -8.18498e-006
155
root  -0.00238411 38.9398 19.3173 177.509 70.3861 -176.39
RightUpLeg  -10.3728 -25.2201 4.14442
RightLeg  29.6864 -3.8664 -2.65292
RightFoot  -13.1125 -0.197912 -7.08234
RightToes  0.000482159 0.542163 -0.142577
Spine  19.4168 3.94667 20.7335
Spine1  12.4515 11.4811 -9.83979
HEad  7.1024 -11.9237 -0.555719
LeftShoulder1  9.59741 -14.3371 -46.9418
LeftArm  -18.5337 23.9263 -21.6221
LeftForeArm  0.532141 -62.5177 -22.4195
LeftHand  -0.25398 0.0180481 5.50724
RightShoulder  6.21712 12.2358 33.5466
RightArm  41.4304 35.401 67.1017
RightForeArm  -31.6392 19.9853 8.30764
RightHand  0.0766882 -9.15516 -4.19613
LeftUpLeg  -19.7149 -9.26655 5.18834
LeftLeg  62.561 1.03799 2.79389
LeftFoot  4.03259 0.241226 -1.96105
LeftToes  1.06248e-005 4.65855e-005 -8.18498e-006
156
root  1.8232 39.2219 19.4148 176.737 71.5903 -177.356
RightUpLeg  -5.63536 -25.5618 3.24318
RightLeg  26.6634 -2.87858 -1.3015
RightFoot  -14.5274 -0.288203 -6.8494
RightToes  0.000482159 0.542163 -0.142577
Spine  18.9613 4.72251 20.0242
Spine1  12.6095 12.0344 -10.3867
HEad  7.43436 -11.1557 -1.35141
LeftShoulder1  9.58653 -14.2566 -47.1046
LeftArm  -18.8232 23.4118 -21.9584
LeftForeArm  0.373014 -62.2823 -22.1836
LeftHand  -0.25398 0.0180481 5.50724
RightShoulder  6.21346 12.263 33.4555
RightArm  41.1722 35.85 67.1654
RightForeArm  -31.0823 19.7132 8.46597
RightHand  0.0756154 -9.01152 -4.29436
LeftUpLeg  -22.1166 -7.53493 3.43492
LeftLeg  55.5571 1.10151 2.22943
LeftFoot  1.20588 0.147404 -1.45744
LeftToes  1.06248e-005 4.65855e-005 -8.18498e-006
157
root  3.61644 39.3657 19.4585 176.359 72.6581 -177.987
RightUpLeg  -1.32603 -23.0217 2.32782
RightLeg  24.2737 -4.57082 -0.0736926
RightFoot  -15.873 -0.360614 -6.38738
RightToes  0.000482159 0.542163 -0.142577
Spine  18.4252 5.31273 19.6898
Spine1  12.6555 12.4839 -11.124
HEad  7.63705 -10.2835 -1.97994
LeftShoulder1  9.57111 -14.18 -47.2352
LeftArm  -18.9896 23.4715 -22.2201
LeftForeArm  0.661656 -62.4114 -22.2915
LeftHand  -0.25398 0.0180481 5.50724
RightShoulder  6.20972 12.3005 33.3389
RightArm  41.3192 36.2374 67.2766
RightForeArm  -30.7489 19.4879 8.62096
RightHand  0.0695385 -8.82718 -4.27855
LeftUpLeg  -23.4702 -4.75677 1.72779
LeftLeg  45.883 1.20825 1.71585
LeftFoot  -0.65576 0.290187 -3.04888
LeftToes  1.06248e-005 4.65855e-005 -8.18498e-006
158
root  5.41239 39.3814 19.4596 176.792 73.5309 -177.998
RightUpLeg  2.48644 -19.3647 2.17014
RightLeg  21.96 -7.41536 0.948272
RightFoot  -17.1052 -0.43551 -6.34164
RightToes  0.000482159 0.542163 -0.142577
Spine  17.5542 5.84412 19.616
Spine1  12.7498 12.8808 -11.9279
HEad  7.76925 -9.47143 -2.45045
LeftShoulder1  9.60239 -14.178 -47.3979
LeftArm  -19.3002 24.0883 -22.4955
LeftForeArm  1.46131 -62.8944 -22.7336
LeftHand  -0.25398 0.0180481 5.50724
RightShoulder  6.17129 12.3076 33.0789
RightArm  41.8001 36.3211 67.2928
RightForeArm  -30.6687 19.5579 8.57917
RightHand  0.0538236 -8.94879 -3.69261
LeftUpLeg  -23.6868 -0.128186 -0.424555
LeftLeg  33.727 1.12498 1.30906
LeftFoot  -1.46095 0.3559 -4.00781
LeftToes  1.06248e-005 4.65855e-005 -8.18498e-006
159
root  7.21463 39.3587 19.4364 176.974 74.5411 -178.24
RightUpLeg  6.47388 -15.2721 2.44458
RightLeg  18.8602 -10.5736 1.8738
RightFoot  -18.011 -0.478433 -6.12237
RightToes  0.000482159 0.542163 -0.142577
Spine  16.4869 6.43592 19.3926
Spine1  13.4382 13.4709 -12.6636
HEad  7.89257 -8.60128 -2.82314
LeftShoulder1  9.64532 -14.1763 -47.6184
LeftArm  -19.8586 24.9672 -22.7885
LeftForeArm  2.65989 -63.6146 -23.4261
LeftHand  -0.25398 0.0180481 5.50724
RightShoulder  6.1213 12.2746 32.8447
RightArm  43.175 36.3271 67.178
RightForeArm  -30.8436 19.8687 8.40062
RightHand  0.0184556 -9.16366 -2.48064
LeftUpLeg  -22.487 5.87135 -3.05116
LeftLeg  19.4087 0.784309 0.0994684
LeftFoot  -1.89499 0.378882 -4.44275
LeftToes  1.06248e-005 4.65855e-005 -8.18498e-006
160
root  9.06232 39.2243 19.3762 176.736 75.6857 -178.558
RightUpLeg  10.6169 -12.5013 2.62835
RightLeg  16.2778 -12.1109 2.69489
RightFoot  -19.0174 -0.466184 -5.04193
RightToes  0.000482159 0.542163 -0.142577
Spine  15.5189 6.82783 19.2267
Spine1  14.6032 14.149 -13.3511
HEad  8.21846 -7.40469 -2.99586
LeftShoulder1  9.62514 -14.0677 -47.8154
LeftArm  -20.5124 25.9972 -22.9708
LeftForeArm  4.02161 -64.5083 -24.3631
LeftHand  -0.25398 0.0180481 5.50724
RightShoulder  6.13702 12.3033 32.873
RightArm  45.175 36.5155 67.1972
RightForeArm  -30.8876 19.8795 8.46887
RightHand  -0.0217564 -8.97599 -1.31821
LeftUpLeg  -20.0274 6.56377 -3.16839
LeftLeg  4.87666 6.82636 -3.34894
LeftFoot  -1.96271 0.481562 -5.71892
LeftToes  1.06248e-005 4.65855e-005 -8.18498e-006
161
root  11.005 38.8813 19.2695 177.565 76.4753 -177.511
RightUpLeg  14.4332 -12.2482 2.59693
RightLeg  15.7391 -11.0616 3.11818
RightFoot  -20.1977 -0.429212 -3.76931
RightToes  0.000482159 0.542163 -0.142577
Spine  14.4793 6.96986 19.4158
Spine1  15.4295 14.5105 -14.0776
HEad  8.83038 -6.11322 -2.80442
LeftShoulder1  9.53745 -13.8803 -47.8909
LeftArm  -21.0957 27.1359 -23.0027
LeftForeArm  5.39126 -65.4847 -25.493
LeftHand  -0.25398 0.0180481 5.50724
RightShoulder  6.20781 12.3984 33.0852
RightArm  46.6532 36.617 67.5126
RightForeArm  -30.31 19.4919 8.79786
RightHand  -0.0434525 -8.49077 -0.639851
LeftUpLeg  -17.984 0.259825 -0.656297
LeftLeg  -5.3004 20.9926 -8.43378
LeftFoot  -3.12374 0.526461 -7.13167
LeftToes  1.06248e-005 4.65855e-005 -8.18498e-006
162
root  13.0285 38.4427 19.1766 177.86 76.5164 -177.335
RightUpLeg  17.5332 -14.3633 1.768
RightLeg  16.7773 -8.07178 2.96346
RightFoot  -21.1065 -0.37724 -2.75617
RightToes  0.000482159 0.542163 -0.142577
Spine  13.2051 7.12005 18.9547
Spine1  15.9848 14.6705 -14.514
HEad  9.44816 -5.21822 -2.23618
LeftShoulder1  9.4314 -13.7337 -47.7592
LeftArm  -21.7873 28.2503 -23.0474
LeftForeArm  6.90834 -66.4323 -26.6741
LeftHand  -0.25398 0.0180481 5.50724
RightShoulder  6.24736 12.4039 33.3197
RightArm  47.1389 36.188 67.8638
RightForeArm  -29.0886 19.3269 8.87269
RightHand  -0.0557614 -8.09857 -0.118661
LeftUpLeg  -18.3505 0.487021 -1.81241
LeftLeg  -6.11318 27.4544 -9.9091
LeftFoot  -5.73117 0.425704 -7.87361
LeftToes  1.06248e-005 4.65855e-005 -8.18498e-006
